<?xml version="1.0" encoding="UTF-8" standalone="no"?>
<!-- Created with Inkscape (http://www.inkscape.org/) -->

<svg
   width="91.217644mm"
   height="87.358337mm"
   viewBox="0 0 91.217644 87.358337"
   version="1.1"
   id="svg1"
   sodipodi:docname="editorFI.svg"
   inkscape:export-filename="FI.svg"
   inkscape:export-xdpi="96"
   inkscape:export-ydpi="96"
   inkscape:version="1.3.2 (091e20e, 2023-11-25, custom)"
   xmlns:inkscape="http://www.inkscape.org/namespaces/inkscape"
   xmlns:sodipodi="http://sodipodi.sourceforge.net/DTD/sodipodi-0.dtd"
   xmlns="http://www.w3.org/2000/svg"
   xmlns:svg="http://www.w3.org/2000/svg">
  <sodipodi:namedview
     id="namedview1"
     pagecolor="#ffffff"
     bordercolor="#000000"
     borderopacity="0.25"
     inkscape:showpageshadow="2"
     inkscape:pageopacity="0.0"
     inkscape:pagecheckerboard="0"
     inkscape:deskcolor="#d1d1d1"
     inkscape:document-units="mm"
     inkscape:zoom="2.1637573"
     inkscape:cx="362.56377"
     inkscape:cy="432.81195"
     inkscape:window-width="1920"
     inkscape:window-height="1009"
     inkscape:window-x="-8"
     inkscape:window-y="-8"
     inkscape:window-maximized="1"
     inkscape:current-layer="layer1" />
  <defs
     id="defs1">
    <inkscape:perspective
       sodipodi:type="inkscape:persp3d"
       inkscape:vp_x="-24.873413 : -37.073577 : 1"
       inkscape:vp_y="-2.500745e-13 : 1291.7352 : 0"
       inkscape:vp_z="317.49031 : -25.969977 : 1"
       inkscape:persp3d-origin="86.412517 : -114.80012 : 1"
       id="perspective1" />
  </defs>
  <g
     inkscape:label="Capa 1"
     inkscape:groupmode="layer"
     id="layer1"
     transform="translate(-49.318814,-74.014257)">
    <g
       sodipodi:type="inkscape:box3d"
       id="g1"
       style="fill:#f9f9f9"
       inkscape:perspectiveID="#perspective1"
       inkscape:corner0="0.24684143 : 0.10330616 : 0 : 1"
       inkscape:corner7="0.10512202 : 0.03944768 : 0.27846305 : 1">
      <path
         sodipodi:type="inkscape:box3dside"
         id="path6"
         style="fill:#e9e9ff;fill-rule:evenodd;stroke:none;stroke-width:0.945657;stroke-linejoin:round"
         inkscape:box3dsidetype="11"
         d="m 159.90792,159.8902 13.87531,-3.94926 v 59.61921 l -13.87531,-1.5901 z"
         points="173.78323,155.94094 173.78323,215.56015 159.90792,213.97005 159.90792,159.8902 " />
      <path
         sodipodi:type="inkscape:box3dside"
         id="path1"
         style="fill:#353564;fill-rule:evenodd;stroke:none;stroke-width:0.881742;stroke-linejoin:round"
         inkscape:box3dsidetype="6"
         d="m 113.69968,153.75913 v 66.15777 l 46.20824,-5.94685 0,-54.07985 z"
         points="113.69968,219.9169 159.90792,213.97005 159.90792,159.8902 113.69968,153.75913 " />
      <path
         sodipodi:type="inkscape:box3dside"
         id="path5"
         style="fill:#afafde;fill-rule:evenodd;stroke:none;stroke-width:0.881742;stroke-linejoin:round"
         inkscape:box3dsidetype="13"
         d="m 113.69968,219.9169 11.44585,2.75337 48.6377,-7.11012 -13.87531,-1.5901 z"
         points="125.14553,222.67027 173.78323,215.56015 159.90792,213.97005 113.69968,219.9169 " />
      <path
         sodipodi:type="inkscape:box3dside"
         id="path2"
         style="fill:#4d4d9f;fill-rule:evenodd;stroke:none;stroke-width:0.932412;stroke-linejoin:round"
         inkscape:box3dsidetype="5"
         d="m 113.69968,153.75913 11.44585,-5.73061 48.6377,7.91242 -13.87531,3.94926 z"
         points="125.14553,148.02852 173.78323,155.94094 159.90792,159.8902 113.69968,153.75913 " />
      <path
         sodipodi:type="inkscape:box3dside"
         id="path4"
         style="fill:#00b6b6;fill-opacity:1;fill-rule:evenodd;stroke:none;stroke-linejoin:round"
         inkscape:box3dsidetype="14"
         d="m 125.14553,148.02852 0,74.64175 48.6377,-7.11012 v -59.61921 z"
         points="125.14553,222.67027 173.78323,215.56015 173.78323,155.94094 125.14553,148.02852 " />
      <path
         sodipodi:type="inkscape:box3dside"
         id="path3"
         style="fill:#008f8f;fill-opacity:1;fill-rule:evenodd;stroke:none;stroke-width:0.932412;stroke-linejoin:round"
         inkscape:box3dsidetype="3"
         d="m 113.69968,153.75913 11.44585,-5.73061 0,74.64175 -11.44585,-2.75337 z"
         points="125.14553,148.02852 125.14553,222.67027 113.69968,219.9169 113.69968,153.75913 " />
    </g>
    <g
       id="g34"
       inkscape:label="ojos">
      <path
         style="fill:#f9f9f9;fill-opacity:1;stroke-width:0.264583"
         id="path24"
         sodipodi:type="arc"
         sodipodi:cx="90.489418"
         sodipodi:cy="97.828384"
         sodipodi:rx="7.0827737"
         sodipodi:ry="9.8624306"
         sodipodi:start="0"
         sodipodi:end="6.2771138"
         sodipodi:arc-type="arc"
         d="m 97.572192,97.828384 a 7.0827737,9.8624306 0 0 1 -7.072023,9.862416 7.0827737,9.8624306 0 0 1 -7.093492,-9.832476 7.0827737,9.8624306 0 0 1 7.050489,-9.892268 7.0827737,9.8624306 0 0 1 7.114895,9.802449"
         sodipodi:open="true" />
      <path
         style="fill:#f9f9f9;fill-opacity:1;stroke-width:0.250497"
         id="path24-0"
         sodipodi:type="arc"
         sodipodi:cx="114.12892"
         sodipodi:cy="100.012"
         sodipodi:rx="5.6412945"
         sodipodi:ry="8.5875759"
         sodipodi:start="0"
         sodipodi:end="6.2771138"
         sodipodi:arc-type="arc"
         d="m 119.77022,100.012 a 5.6412945,8.5875759 0 0 1 -5.63274,8.58757 5.6412945,8.5875759 0 0 1 -5.64983,-8.5615 5.6412945,8.5875759 0 0 1 5.61558,-8.613556 5.6412945,8.5875759 0 0 1 5.66688,8.535348"
         sodipodi:open="true" />
      <path
         style="fill:#1a1a1a;fill-opacity:1;stroke-width:0.223684"
         id="path27-6"
         sodipodi:type="arc"
         sodipodi:cx="112.20202"
         sodipodi:cy="101.09827"
         sodipodi:rx="2.0302784"
         sodipodi:ry="1.9002649"
         sodipodi:start="0"
         sodipodi:end="6.2825068"
         sodipodi:arc-type="arc"
         d="m 114.2323,101.09827 a 2.0302784,1.9002649 0 0 1 -2.02994,1.90026 2.0302784,1.9002649 0 0 1 -2.03062,-1.89962 2.0302784,1.9002649 0 0 1 2.02925,-1.900908 2.0302784,1.9002649 0 0 1 2.03131,1.898978"
         sodipodi:open="true" />
      <path
         style="fill:#1a1a1a;fill-opacity:1;stroke-width:0.264583"
         id="path27"
         sodipodi:type="arc"
         sodipodi:cx="89.207771"
         sodipodi:cy="99.609093"
         sodipodi:rx="2.2637606"
         sodipodi:ry="2.3844671"
         sodipodi:start="0"
         sodipodi:end="6.2825068"
         sodipodi:arc-type="arc"
         d="m 91.471532,99.609093 a 2.2637606,2.3844671 0 0 1 -2.263377,2.384467 2.2637606,2.3844671 0 0 1 -2.264144,-2.383658 2.2637606,2.3844671 0 0 1 2.262608,-2.385276 2.2637606,2.3844671 0 0 1 2.264912,2.382849"
         sodipodi:open="true" />
    </g>
    <path
       style="fill:#000000;stroke-width:0.264583"
       id="path20"
       d="m 95.451278,120.92882 c 0.540287,0.29191 1.136428,0.43846 1.733468,0.5602 0.809498,0.15404 1.631749,0.21083 2.453727,0.24135 0.802557,0.0374 1.604447,-0.0145 2.403017,-0.0908 0.72627,-0.0626 1.42955,-0.24148 2.11305,-0.48803 0.62659,-0.24758 1.21165,-0.58227 1.80447,-0.89879 0.59126,-0.32168 1.19894,-0.61135 1.80923,-0.89471 0.491,-0.2299 0.98345,-0.45746 1.45854,-0.71906 0.37574,-0.21564 0.74959,-0.43449 1.12922,-0.64326 0.27953,-0.15369 0.559,-0.30734 0.8425,-0.4536 0.1327,-0.0644 0.26436,-0.12961 0.38942,-0.20795 0.21826,-0.15374 0.43541,-0.309 0.65488,-0.46102 0.23805,-0.16823 0.5007,-0.29621 0.7574,-0.43271 0.0465,-0.0346 0.093,-0.0692 0.13946,-0.10381 0.53659,-0.46159 -0.1162,-1.22045 -0.65279,-0.75886 v 0 c 0.0144,-0.007 0.0289,-0.0141 0.0434,-0.0211 -0.29122,0.15486 -0.5879,0.30211 -0.85748,0.49369 -0.20953,0.14518 -0.41771,0.29228 -0.62477,0.44097 -0.0959,0.0657 -0.20775,0.10402 -0.30843,0.16125 -0.29139,0.15033 -0.57873,0.3081 -0.86601,0.46613 -0.38001,0.2091 -0.7546,0.42764 -1.13051,0.64397 -0.45415,0.25141 -0.9271,0.46626 -1.3964,0.68752 -0.62715,0.2913 -1.25155,0.58918 -1.85924,0.91965 -0.5508,0.29433 -1.09399,0.606 -1.67423,0.84075 -0.60337,0.22037 -1.22518,0.37702 -1.86712,0.43258 -0.75456,0.0726 -1.51229,0.12241 -2.270676,0.0869 -0.767784,-0.0281 -1.535909,-0.0797 -2.292284,-0.22219 -0.498163,-0.0997 -0.99705,-0.21596 -1.449416,-0.45615 -0.620205,-0.3411 -1.102591,0.536 -0.482386,0.8771 z" />
    <path
       style="fill:#000000;stroke-width:0.264583"
       id="path21"
       d="m 96.397907,122.01057 c 0.376846,0.002 0.753451,0.0252 1.128143,0.0648 0.330327,0.0304 0.652241,0.11188 0.972225,0.19553 0.383008,0.10996 0.773205,0.1901 1.164109,0.26577 0.487366,0.10516 0.981976,0.16078 1.478546,0.19685 0.50115,0.0305 1.00327,0.0377 1.50521,0.0414 0.42884,0.002 0.85769,0.001 1.28654,7.9e-4 0.51464,0.0185 1.02283,-0.0238 1.52452,-0.13723 0.49584,-0.1184 0.95152,-0.34598 1.39788,-0.58532 0.46614,-0.27341 0.92711,-0.55626 1.36958,-0.8667 0.40701,-0.29174 0.79486,-0.60844 1.16395,-0.9466 0.38088,-0.36873 0.75218,-0.74719 1.13211,-1.11698 0.36869,-0.35333 0.75752,-0.68443 1.1538,-1.00617 0.20603,-0.17373 0.42373,-0.33418 0.62279,-0.51607 -0.23062,-0.2451 -0.42413,-0.53141 -0.69188,-0.7353 -0.0465,-0.0354 -0.0971,0.065 -0.14554,0.0976 -0.0664,0.0448 -0.13263,0.0899 -0.19909,0.13461 -0.30609,0.20602 -0.60721,0.41679 -0.90614,0.63316 -0.75342,0.54782 -1.4514,1.16594 -2.13479,1.79748 -0.64731,0.61613 -1.25247,1.27405 -1.86223,1.92672 -0.51339,0.55152 -1.03635,1.09252 -1.60343,1.589 -0.44185,0.39912 -0.94411,0.68263 -1.50655,0.86642 -0.41655,0.10968 -0.85445,0.18888 -1.28521,0.14175 -0.48519,-0.0659 -0.89706,-0.30835 -1.2751,-0.60562 -0.28389,-0.24584 -0.53491,-0.52571 -0.731036,-0.84596 -0.155299,-0.31776 -0.354695,-0.5986 -0.588999,-0.86241 -0.195929,-0.20731 -0.405723,-0.40133 -0.625705,-0.5828 -0.0019,-0.002 -0.0039,-0.004 -0.0059,-0.006 -0.149501,0.28696 -0.329767,0.5599 -0.448504,0.8609 -0.01238,0.0314 0.063,0.0243 0.09451,0.0365 0.054,0.0208 0.108352,0.0408 0.162002,0.0626 0.146769,0.0595 0.284419,0.12123 0.429797,0.18499 0.488619,0.20015 0.948677,0.44819 1.380125,0.75145 0.37898,0.28922 0.72213,0.62149 1.0783,0.9377 0.47878,0.36334 0.77526,0.20814 0.98517,-0.43587 0.0902,-0.2766 -0.40853,-0.80332 -0.57013,-0.97269 -0.33544,-0.25263 -0.82136,-0.64057 -1.28551,-0.46546 -0.15439,0.0583 -0.31322,0.14983 -0.40196,0.28895 -0.1029,0.16132 -0.0919,0.3715 -0.13779,0.55725 0.0428,0.16072 0.0619,0.32971 0.12838,0.48217 0.23522,0.53937 0.92864,1.20205 1.55788,1.18255 0.17948,-0.006 0.34376,-0.10392 0.51565,-0.15588 0.11321,-0.16249 0.28148,-0.29817 0.33964,-0.48747 0.17065,-0.5554 -0.33426,-1.25523 -0.73943,-1.58716 -0.0851,-0.0698 -0.18464,-0.11987 -0.27695,-0.17981 -0.19001,0.0129 -0.43386,-0.0943 -0.57003,0.0388 -0.51676,0.50529 -0.0714,1.05978 0.38113,1.26959 0.3579,0.16595 0.45602,0.11093 0.83565,0.085 0.13321,-0.0648 0.28408,-0.10166 0.39962,-0.19435 0.39664,-0.3182 0.49958,-0.89111 0.1642,-1.29819 -0.0936,-0.11357 -0.21802,-0.22462 -0.36265,-0.25169 -0.19023,-0.0356 -0.38371,0.0507 -0.57557,0.0761 -0.10608,0.13676 -0.24959,0.25139 -0.31823,0.41027 -0.21992,0.50903 0.10683,1.22799 0.56259,1.49174 0.12046,0.0697 0.2637,0.0891 0.39555,0.13367 0.15149,-0.0282 0.31647,-0.0161 0.45448,-0.0847 0.47546,-0.23614 0.62616,-0.89328 0.429,-1.3544 -0.0425,-0.0995 -0.11749,-0.18173 -0.17623,-0.2726 -0.17541,-0.0555 -0.34739,-0.20993 -0.52622,-0.16664 -0.62808,0.15203 -0.64698,1.02378 -0.45391,1.48052 0.0482,0.11405 0.1284,0.21175 0.1926,0.31762 0.11939,0.0757 0.21952,0.19953 0.35818,0.22704 0.53691,0.10649 0.89487,-0.28477 0.98205,-0.76764 0.0567,-0.3138 -0.0155,-0.45902 -0.0939,-0.75121 -0.065,-0.1079 -0.11398,-0.22728 -0.19506,-0.3237 -0.31741,-0.37745 -0.83128,-0.47173 -1.20379,-0.0828 -0.25675,0.2681 -0.1982,0.5392 -0.19827,0.8604 0.0742,0.34745 0.35528,1.11179 0.82747,1.09728 0.19412,-0.006 0.41229,-0.0613 0.54669,-0.20151 0.1259,-0.13136 0.0998,-0.34997 0.14965,-0.52495 -0.0425,-0.13353 -0.0671,-0.27418 -0.12756,-0.4006 -0.22146,-0.46307 -0.67427,-0.82264 -1.06794,-1.13437 -0.0362,-0.0279 -0.0725,-0.0558 -0.10872,-0.0836 -7.9e-4,-0.002 -0.002,-0.009 -0.002,-0.007 -0.0434,0.27076 -0.0806,0.54252 -0.12684,0.81281 -0.002,0.0101 -0.0268,0.026 -0.0166,0.0259 0.18916,-5.3e-4 0.4241,-0.0592 0.60265,-0.0951 0.80186,-0.1961 1.51845,-0.59509 2.19922,-1.04893 0.56907,-0.41166 1.11356,-0.85562 1.67812,-1.2735 0.28843,-0.23275 0.61447,-0.41763 0.90131,-0.65209 -0.22946,-0.24599 -0.41293,-0.54485 -0.68836,-0.73797 -0.0603,-0.0423 -0.11956,0.0861 -0.1786,0.13011 -0.42197,0.31466 -0.84238,0.62791 -1.2758,0.92691 -0.7513,0.52041 -1.56321,0.94035 -2.39912,1.30555 -0.57568,0.25453 -1.18449,0.41027 -1.79336,0.55982 -0.54974,0.16437 -0.55219,0.37648 -0.10136,1.04955 0.0792,0.11819 1.04266,-0.0605 1.14672,-0.079 1.53557,-0.38247 2.914,-1.19104 4.27115,-1.97802 0.96041,-0.55573 1.89082,-1.16007 2.80282,-1.79144 0.52091,-0.37196 0.62135,-0.23041 -0.28312,-1.00301 -0.0409,-0.035 -0.0843,0.0669 -0.12668,0.10015 -0.0865,0.068 -0.17328,0.13565 -0.25993,0.20347 -1.07091,0.83389 -2.12336,1.69103 -3.184,2.53784 -0.85285,0.66175 -1.68306,1.35144 -2.50028,2.05649 -0.33229,0.29105 -0.65782,0.59119 -0.95189,0.92131 -0.0364,0.0655 -0.16189,0.14303 -0.10933,0.19646 0.23733,0.24128 0.52389,0.46386 0.84954,0.55604 0.13944,0.0395 0.25679,-0.1346 0.3821,-0.20739 0.54804,-0.31832 1.06,-0.68528 1.57317,-1.05589 1.07434,-0.84508 2.10238,-1.74723 3.13147,-2.64637 0.44811,-0.41064 0.84194,-0.45751 -0.45051,-0.87668 -0.0903,-0.0293 -0.12956,0.13889 -0.19672,0.20599 -0.2575,0.25727 -0.40486,0.38754 -0.67951,0.64079 -0.72492,0.66696 -1.48129,1.29666 -2.27077,1.8854 -0.40443,0.30963 -0.21169,0.1549 -0.57944,0.46266 -0.54216,0.45504 0.10137,1.22177 0.64353,0.76673 v 0 c 0.32934,-0.27735 0.15191,-0.13406 0.53453,-0.4271 0.81703,-0.60993 1.60063,-1.26127 2.35095,-1.95201 0.26835,-0.24774 0.47437,-0.43168 0.72855,-0.68927 0.0856,-0.0867 0.28548,-0.15041 0.24975,-0.26689 -0.39144,-1.2759 -0.51734,-0.9045 -0.98898,-0.50342 -1.00593,0.87892 -2.01105,1.76041 -3.05926,2.58892 -0.4798,0.34716 -0.95851,0.6881 -1.46872,0.9898 -0.0978,0.0579 -0.3215,0.055 -0.29778,0.1661 0.24464,1.14629 0.69117,0.411 0.40585,0.83087 0.26361,-0.29795 0.5596,-0.56515 0.85738,-0.82816 0.80754,-0.69681 1.62807,-1.37824 2.47093,-2.03212 1.05815,-0.84485 2.10814,-1.69997 3.17652,-2.53193 0.0897,-0.0703 0.17995,-0.13995 0.26922,-0.21082 0.0598,-0.0475 0.20548,-0.073 0.178,-0.14426 -0.43023,-1.11546 -0.43441,-0.92141 -0.96438,-0.5567 -0.89001,0.61626 -1.79792,1.20625 -2.73526,1.74856 -1.25741,0.72959 -2.53158,1.48524 -3.94842,1.85913 -0.12355,0.0232 -0.24647,0.05 -0.37064,0.0696 -0.0779,0.0123 -0.157,0.0154 -0.23512,0.0261 -0.0199,0.003 -0.0603,-0.006 -0.0585,0.0141 0.11231,1.23793 0.38011,0.58336 -0.0493,0.90373 -0.0242,0.0181 0.0576,-0.0181 0.0864,-0.0271 0.66459,-0.16324 1.32794,-0.33721 1.95611,-0.61499 0.8938,-0.39225 1.76267,-0.84122 2.56624,-1.39869 0.44068,-0.30435 0.86949,-0.62154 1.29794,-0.94265 0.0485,-0.0364 0.16956,-0.0515 0.1466,-0.10765 -0.12583,-0.30755 -0.35657,-0.56083 -0.53485,-0.84125 0.12574,-0.097 -0.17678,0.12373 -0.18114,0.12682 -0.12857,0.091 -0.26697,0.18977 -0.39372,0.28158 -0.0861,0.0624 -0.17179,0.12527 -0.25768,0.18791 -0.55158,0.40852 -1.08494,0.8406 -1.63883,1.24584 -0.57285,0.38424 -1.17296,0.72787 -1.84712,0.90114 -0.31166,0.0682 -0.15511,0.0425 -0.43046,0.0746 -0.0988,0.0115 -0.24599,-0.0509 -0.2964,0.0349 -0.4065,0.6917 -0.38935,0.73441 -0.0371,1.00282 0.16644,0.13075 0.32904,0.26416 0.4792,0.41387 0.0583,0.0581 0.1128,0.11978 0.1692,0.17968 0.0384,0.0464 0.0729,0.0964 0.11525,0.13919 0.0137,0.0139 0.034,0.0193 0.051,0.0289 0.18552,-0.24802 0.37078,-0.48765 0.67048,-0.14379 0.0142,0.0163 -0.0413,-0.0176 -0.055,-0.0344 -0.0736,-0.0896 -0.0969,-0.16928 -0.13977,-0.27434 -0.0826,-0.19503 -0.0795,0.015 -0.32596,-0.0427 -0.22135,-0.0518 -0.14212,-0.16768 -0.0306,-0.0423 0.0125,0.0272 0.0701,0.23467 0.10929,0.24453 0.0313,0.008 0.0645,-0.0137 0.0964,-0.009 0.2604,0.0364 0.20208,0.006 0.31341,0.16921 -0.12953,-0.0106 -0.089,-0.34447 -0.12597,-0.33827 -0.57711,0.0966 -0.0485,0.26285 -0.66462,-0.0633 -0.005,-0.0262 -0.0236,-0.0538 -0.0137,-0.0784 0.0304,-0.0756 0.0243,0.0621 0.0512,0.10499 0.0436,0.0696 0.20692,-0.0407 0.23358,0.0641 5.3e-4,0.0446 0.0166,0.10065 -0.0749,0.0294 -0.17262,-0.13436 -0.074,-0.30363 -0.33628,-0.187 -0.0944,-0.0222 -0.19718,-0.0219 -0.28317,-0.0667 -0.12149,-0.0633 -0.031,-0.23367 0.0624,-0.25367 0.0323,-0.007 0.0729,0.0921 0.0151,0.098 -0.1613,0.0907 -0.14465,0.0175 -0.27723,0.0211 -0.18944,0.005 0.21756,1.67612 -0.29969,0.48313 -0.14385,-0.0136 -0.2877,-0.0272 -0.43154,-0.0408 0.17246,0.0553 0.29556,0.24633 0.40755,0.3796 0.14776,0.17586 0.11398,0.16358 0.34011,0.10593 0.007,0.01 0.16753,0.18328 -0.0619,0.10358 -0.27817,-0.0966 -0.55568,-0.42325 -0.70829,-0.66807 -0.10493,0.0629 -0.14813,0.10842 -0.28484,0.0981 -0.026,-0.002 -0.0893,-0.0382 -0.0641,-0.045 0.11823,-0.0316 0.38242,0.17859 0.4664,0.23293 0.0183,0.0166 0.25837,0.26824 0.27681,0.25408 0.14898,-0.11445 0.25007,-0.30312 0.426,-0.36901 0.0995,-0.0373 0.42838,0.17778 0.25433,0.0669 -0.38503,-0.34181 -0.75571,-0.70152 -1.16923,-1.00948 -0.48672,-0.33886 -1.002293,-0.62284 -1.551931,-0.84792 -0.210926,-0.0924 -0.421515,-0.18358 -0.636593,-0.26591 -0.04391,-0.0168 -0.101107,-0.0855 -0.131934,-0.0499 -0.21663,0.24954 -0.3786,0.54268 -0.544108,0.82869 -0.0095,0.0165 0.02842,0.0253 0.04263,0.0379 0.181277,0.14888 0.353632,0.30871 0.516237,0.47778 0.198636,0.2194 0.353316,0.45768 0.484952,0.72369 0.263382,0.41837 0.58761,0.79134 0.968167,1.10856 0.53659,0.41045 1.12258,0.73335 1.8056,0.81163 0.56826,0.038 1.13573,-0.0244 1.6828,-0.18937 0.69583,-0.2339 1.30095,-0.57117 1.85117,-1.06386 0.59114,-0.51933 1.13967,-1.08154 1.67483,-1.6582 0.59309,-0.63482 1.18144,-1.27497 1.81027,-1.87503 0.65394,-0.60472 1.32153,-1.19703 2.04241,-1.72179 0.35402,-0.25652 0.71355,-0.50297 1.07596,-0.74735 0.0444,-0.0299 0.15467,-0.0404 0.13337,-0.0896 -0.13176,-0.30388 -0.3568,-0.55812 -0.53519,-0.83717 -0.17678,0.17253 -0.3897,0.30656 -0.57244,0.47231 -0.41944,0.34075 -0.83091,0.69152 -1.22095,1.06591 -0.3729,0.363 -0.73792,0.73392 -1.11082,1.09685 -0.33653,0.30959 -0.69164,0.59789 -1.0628,0.86517 -0.40912,0.28838 -0.83724,0.54823 -1.26747,0.80371 -0.36776,0.19792 -0.74125,0.39119 -1.14947,0.49183 -0.4271,0.10145 -0.86153,0.12529 -1.30007,0.11156 -0.42611,2.7e-4 -0.85223,0.001 -1.27835,-7.9e-4 -0.48034,-0.004 -0.96087,-0.0102 -1.4405,-0.0388 -0.457,-0.0328 -0.91212,-0.0837 -1.360514,-0.18123 -0.369842,-0.0715 -0.739071,-0.14697 -1.101315,-0.2515 -0.368884,-0.0962 -0.740428,-0.18734 -1.121063,-0.22259 -0.409347,-0.0424 -0.820581,-0.0683 -1.232244,-0.0702 -0.707813,0 -0.707813,1.00099 0,1.00099 z" />
    <g
       id="g33"
       inkscape:label="brazos y piernas">
      <path
         style="fill:#000000;stroke-width:0.264583"
         id="path33"
         d="m 110.21975,155.15798 c -0.4352,-0.10065 -0.87843,-0.17569 -1.32179,-0.0516 -0.17534,0.0491 -0.3347,0.14351 -0.50205,0.21526 -0.14259,0.11813 -0.2993,0.22104 -0.42777,0.35437 -0.22451,0.23301 -0.55776,0.82393 -0.53969,1.15978 0.0186,0.34583 0.0623,0.70002 0.19228,1.02104 0.0898,0.22174 0.29869,0.37375 0.44803,0.56062 0.73123,0.59923 1.63779,0.68052 2.54322,0.73117 0.66236,0.0241 1.3268,0.0569 1.97585,-0.10819 0.17876,-0.0455 0.34977,-0.11724 0.52466,-0.17586 0.87045,-0.33267 1.53749,-0.96173 2.16569,-1.62546 0.27669,-0.33158 0.5936,-0.59394 0.98946,-0.76352 0.0599,-0.0226 0.6503,-0.23196 0.64695,-0.13391 -0.0306,0.0195 -0.0665,2.4e-4 -0.0981,0.009 -0.0228,0.006 0.22,0.27384 0.22118,0.27521 0.053,-0.0241 0.20926,0.43616 0.12346,0.34853 -0.0142,-0.0749 -0.0234,-0.17194 0.002,-0.24365 0.0315,-0.0888 0.0738,-0.1264 0.0591,-0.13539 -0.0156,-0.01 -0.0355,0.009 -0.0533,0.0134 -0.35533,0.12273 -0.74176,0.12648 -1.11409,0.14843 -0.67351,0.0236 -1.347,0.0186 -2.02034,0.0491 -0.81712,0.0604 -1.63587,0.0845 -2.45479,0.10276 -2.1215,0.0476 -2.05423,3.04781 0.0673,3.00024 v 0 c 0.84257,-0.019 1.68509,-0.0431 2.52582,-0.10519 0.68819,-0.0325 1.37694,-0.02 2.06519,-0.0515 0.79277,-0.0498 1.59572,-0.12077 2.31774,-0.48248 0.12922,-0.0721 0.26458,-0.13421 0.38765,-0.21638 0.73255,-0.4891 1.16162,-1.22381 1.21856,-2.10282 -0.007,-0.15085 -0.004,-0.30265 -0.0222,-0.45256 -0.0863,-0.70298 -0.42705,-1.33431 -0.86819,-1.87636 -0.58237,-0.63975 -1.17668,-1.13476 -2.06441,-1.26726 -0.13922,-0.009 -0.27816,-0.0262 -0.41765,-0.0263 -0.62465,-5.3e-4 -1.2317,0.19769 -1.8024,0.43275 -0.13684,0.0669 -0.27712,0.12724 -0.41051,0.2008 -0.56516,0.31165 -1.05002,0.73855 -1.4802,1.21621 -0.30192,0.32048 -0.59651,0.66506 -0.99869,0.86184 -0.0539,0.0236 -0.10846,0.0459 -0.16178,0.0708 -0.026,0.0121 -0.0478,0.0357 -0.0761,0.0404 -0.3561,0.0586 -0.72913,-0.0135 -1.08669,5.3e-4 -0.23264,-0.0119 -0.28949,-0.0122 -0.515,-0.033 -0.0611,-0.006 -0.1219,-0.0152 -0.1831,-0.0202 -0.0228,-0.002 -0.0483,-0.0111 -0.0686,-5.2e-4 -0.0559,0.0294 0.48201,0.24256 0.12671,0.14107 0.0643,0.10628 0.16397,0.19804 0.19296,0.31885 0.10073,0.4197 0.16103,0.90305 -0.19898,1.20202 -0.0784,0.0651 -0.16815,0.11502 -0.25222,0.17252 -0.30144,0.0987 -0.25312,0.11176 -0.55954,0.10605 -0.0303,-5.3e-4 -0.11936,-0.0176 -0.0891,-0.0181 0.0965,-0.002 0.19325,0.0466 0.28897,0.0544 2.06275,0.49806 2.76711,-2.41911 0.70436,-2.91717 z" />
      <path
         style="fill:#000000;stroke-width:0.264583"
         id="path32"
         d="m 88.827257,158.94916 c 0.59541,0.0145 1.189162,0.0668 1.784326,0.0919 0.766136,0.0263 1.524328,-0.0828 2.268093,-0.25614 0.474382,-0.11836 0.938223,-0.27357 1.40661,-0.41281 0.25065,-0.0743 0.513088,-0.0912 0.772787,-0.10426 0.0614,-0.0351 0.254844,0.0358 0.08377,0.0315 -0.03644,-0.0539 -0.03287,0.0188 -0.03957,0.0162 -0.04845,-0.0188 -0.03749,-0.0343 -0.02844,0.0487 -0.0024,0.007 -0.0011,0.0226 -0.0075,0.0196 -0.107653,-0.0496 0.108956,-0.44951 0.123788,-0.4905 -0.434136,0.12992 -0.879586,0.21183 -1.326163,0.28499 -0.508238,0.0742 -1.021191,0.10429 -1.534088,0.12053 -0.236056,0.0167 -0.470506,-0.0133 -0.701511,-0.0593 0.02506,0.0102 -0.104074,-0.0288 -0.07877,-0.0193 0.09279,0.0348 0.284996,0.005 0.278448,0.10425 -0.186285,2.81276 0.46578,2.69932 -0.551916,2.83616 0.597014,0.0525 1.195499,0.0367 1.793169,0.008 1.246807,-0.0755 1.909548,-0.46509 1.747176,-2.29562 -0.04875,-0.54959 -0.846688,-0.77046 -1.279176,-0.92152 -0.778332,-0.21096 -1.571704,-0.36022 -2.34587,-0.58663 -0.413448,-0.13511 -0.812408,-0.30861 -1.221258,-0.4565 -0.435248,-0.15816 -0.889767,-0.25003 -1.347899,-0.30916 -0.230764,-0.0272 -0.46306,-0.0355 -0.695232,-0.0363 -0.462084,0.009 -0.861909,0.1898 -1.20863,0.481 -0.304128,0.28657 -0.461185,0.63816 -0.513858,1.04456 0.0055,0.39919 -0.126741,0.18243 0.195832,0.93276 0.06347,0.14763 0.189404,0.25965 0.284106,0.38948 0.45651,0.46892 1.045951,0.76381 1.63198,1.03667 0.645927,0.26621 1.314725,0.46829 1.9945,0.62618 0.818343,0.18853 1.65816,0.241 2.49424,0.28361 0.124796,0.005 0.249592,0.009 0.374388,0.0139 2.120601,0.0778 2.230576,-2.92122 0.109972,-2.99899 v 0 c -0.110988,-0.004 -0.221978,-0.008 -0.332965,-0.0121 -0.66221,-0.0331 -1.328777,-0.066 -1.977718,-0.21217 -0.478724,-0.1064 -0.945724,-0.25409 -1.405213,-0.42542 -0.172794,-0.0786 -0.344098,-0.15944 -0.509738,-0.25247 -0.09389,-0.0527 -0.149733,-0.0954 -0.152448,-0.0821 -0.0029,0.0141 0.01511,0.0245 0.02268,0.0367 0.04348,0.0718 0.104725,0.13552 0.130445,0.21544 0.06428,0.1997 0.08793,0.4103 0.136633,0.61436 0.0027,0.0114 1.72e-4,-0.005 -0.0024,-0.10798 -2.64e-4,-0.0131 7.94e-4,0.0261 0.0013,0.0392 -0.0016,0.0508 -0.0033,0.10152 -0.0049,0.15229 -0.04829,0.36455 -0.185764,0.67739 -0.463243,0.93133 -0.235418,0.19197 -0.499671,0.3008 -0.811551,0.29475 0.11099,2e-5 0.222102,0.002 0.332608,0.0135 0.237752,0.0267 0.473969,0.0739 0.69977,0.15424 0.468982,0.16815 0.924158,0.37375 1.40267,0.51543 0.750332,0.21627 1.513448,0.37999 2.272048,0.56419 0.369533,0.026 -0.541337,-0.0262 -0.512968,-0.63235 0.09286,-1.9843 0.164234,-1.75133 1.097727,-2.0374 0.09177,-0.0281 -0.673598,0.15301 -0.28642,0.0296 -0.522769,0.0254 -1.044898,0.0364 -1.567055,-0.0107 -0.104418,0.001 -0.282099,-0.0954 -0.313254,0.004 -0.736253,2.35551 -1.380768,2.72899 0.02657,3.02346 0.44667,0.0822 0.899766,0.1343 1.354778,0.1098 0.644403,-0.0212 1.288778,-0.0619 1.926765,-0.15918 0.864759,-0.14408 1.742212,-0.30405 2.508938,-0.754 0.164705,-0.12588 0.352578,-0.22618 0.494114,-0.37764 0.645398,-0.69068 0.787935,-1.41172 0.643078,-2.3105 -0.193077,-0.77843 -0.495636,-1.35932 -1.14137,-1.85929 -0.109741,-0.0707 -0.21485,-0.14921 -0.329224,-0.21216 -0.500965,-0.27574 -1.067641,-0.38134 -1.635067,-0.35426 -0.494093,0.0284 -0.989163,0.0797 -1.464754,0.22444 -0.413819,0.12326 -0.823971,0.25915 -1.241732,0.36881 -0.475557,0.11525 -0.961054,0.1902 -1.452052,0.17807 -0.678135,-0.0278 -1.354727,-0.0979 -2.033812,-0.092 -2.120199,0.0881 -1.995654,3.08649 0.124544,2.99842 z" />
      <path
         style="fill:#000000;stroke-width:0.264583"
         id="path22"
         d="m 69.43368,111.211 c -0.80328,0.0352 -1.572072,0.2989 -2.319025,0.57663 -0.896893,0.34848 -1.709748,0.8685 -2.482369,1.4347 -0.743283,0.57626 -1.410041,1.24034 -2.041641,1.93487 -0.491403,0.54664 -0.917461,1.14592 -1.350042,1.73874 -0.226078,0.29627 -0.440785,0.60019 -0.638966,0.91575 -0.216842,0.34677 -0.380114,0.72249 -0.539848,1.09785 -0.196408,0.46691 -0.347676,0.95065 -0.4944,1.43489 -0.164113,0.56238 -0.307131,1.13052 -0.447215,1.69926 -0.168116,0.66882 -0.320029,1.34143 -0.468847,2.01475 -0.137165,0.59602 -0.256365,1.19587 -0.393004,1.79203 -0.09394,0.41367 -0.194178,0.82582 -0.294939,1.23786 -0.10337,0.43039 -0.219377,0.85622 -0.362175,1.27515 -0.164454,0.45279 -0.352438,0.89648 -0.54592,1.33748 -0.247624,0.49064 -0.525373,0.96503 -0.8099,1.43493 -0.302916,0.50468 -0.614744,1.00376 -0.934016,1.49824 -0.274405,0.42225 -0.580155,0.82241 -0.851969,1.24625 -1.132467,1.79458 1.405456,3.39613 2.53792,1.60155 v 0 c 0.256315,-0.42079 0.579816,-0.79828 0.835327,-1.22018 0.335005,-0.51904 0.662424,-1.04278 0.980408,-1.57245 0.351801,-0.58194 0.696005,-1.16972 0.990608,-1.78317 0.228211,-0.52069 0.449276,-1.04493 0.640175,-1.58065 0.16878,-0.50147 0.311936,-1.00963 0.434668,-1.52438 0.104217,-0.42628 0.207822,-0.8527 0.305067,-1.28064 0.138168,-0.60365 0.25957,-1.21083 0.398032,-1.81438 0.143653,-0.64997 0.290081,-1.29929 0.452527,-1.94489 0.127453,-0.51778 0.257305,-1.03507 0.405564,-1.54737 0.115311,-0.38142 0.231704,-0.76332 0.384556,-1.13177 0.09711,-0.22959 0.192119,-0.46181 0.320059,-0.67637 0.160244,-0.25623 0.337719,-0.50019 0.520557,-0.74087 0.369683,-0.50669 0.730924,-1.0211 1.148027,-1.49079 0.496848,-0.54879 1.019736,-1.0748 1.60025,-1.53622 0.546587,-0.40636 1.121794,-0.78372 1.755629,-1.04039 0.412729,-0.15675 0.830038,-0.30241 1.264902,-0.38541 2.122027,0 2.122027,-3.001 0,-3.001 z" />
      <path
         style="fill:#000000;stroke-width:0.264583"
         id="path23"
         d="m 125.65476,111.39201 c 0.0421,-0.0246 0.0893,-0.03 0.13587,-0.0155 0.14589,0.0426 0.29063,0.0986 0.43424,0.15086 0.4962,0.1909 0.98578,0.39714 1.48653,0.57607 0.46798,0.17462 0.95123,0.30172 1.42534,0.45741 0.44167,0.15789 0.88637,0.3069 1.33132,0.45522 0.46985,0.1585 0.94999,0.28147 1.43689,0.37382 0.44656,0.0774 0.89963,0.0998 1.352,0.0931 0.50024,-0.0182 0.97787,-0.15352 1.43532,-0.34843 0.33668,-0.15407 0.64636,-0.35876 0.95848,-0.55623 0.1772,-0.11329 0.35243,-0.22925 0.53124,-0.33998 0.0961,-0.0607 0.19001,-0.1248 0.28525,-0.18687 0.20292,-0.12843 0.35846,-0.30382 0.49382,-0.49918 0.0767,-0.26482 0.15347,-0.52965 0.2302,-0.79447 0.0455,-2.12154 -2.95484,-2.18584 -3.00031,-0.0643 v 0 c 0.0763,-0.2459 0.15266,-0.4918 0.22899,-0.73771 0.11215,-0.1612 0.23581,-0.31191 0.4053,-0.41628 -0.0745,0.0491 -0.14891,0.0982 -0.22326,0.14743 -0.18701,0.11581 -0.37074,0.23639 -0.55574,0.35531 -0.18493,0.11701 -0.36818,0.23771 -0.55945,0.34404 -0.0955,0.0472 -0.19394,0.0827 -0.30044,0.0965 -0.24497,0.0116 -0.49133,-0.0113 -0.73401,-0.0435 -0.35167,-0.0627 -0.69613,-0.15826 -1.03523,-0.27015 -0.45054,-0.15018 -0.90052,-0.30181 -1.34806,-0.46075 -0.4501,-0.14657 -0.90758,-0.26956 -1.35234,-0.43251 -0.49803,-0.17589 -0.98145,-0.38865 -1.47654,-0.5725 -0.58074,-0.20717 -1.17577,-0.37543 -1.80024,-0.30726 -0.56834,0.0815 -1.11345,0.23904 -1.57912,0.59021 -1.70114,1.26851 0.0928,3.67428 1.79395,2.40577 z" />
      <path
         style="fill:#000000;stroke-width:0.264583"
         id="path25"
         d="m 53.618084,133.80598 c -0.120136,0.23862 -0.241789,0.47575 -0.379317,0.70484 -0.07425,0.14043 -0.169577,0.26267 -0.280993,0.37461 -0.06255,0.0683 -0.136493,0.1206 -0.212608,0.17165 -0.219742,0.15184 -0.436875,0.30748 -0.65413,0.46286 -0.313838,0.2178 -0.618209,0.44837 -0.918577,0.68425 -0.343594,0.26098 -0.691611,0.51648 -1.044903,0.7642 -0.164357,0.11527 -0.89747,0.57344 -0.799825,0.7219 0.533159,0.81058 1.370076,1.37409 2.055114,2.06114 0.753086,-0.44467 1.402691,-1.04325 2.052388,-1.62316 0.723369,-0.66123 1.405261,-1.36577 2.072196,-2.08331 0.122999,-0.12923 0.239702,-0.26422 0.360754,-0.39523 0.02684,-0.029 0.113194,-0.11005 0.08206,-0.0857 -0.581279,0.45511 -0.438621,0.81179 -1.895554,0.1371 -0.344975,-0.15975 -0.379519,-0.65884 -0.569278,-0.98827 -0.01199,-0.005 -0.03132,-0.0288 -0.03599,-0.0164 -0.04164,0.10999 -0.05761,0.22805 -0.08721,0.34188 -0.03636,0.13982 -0.07366,0.27941 -0.11067,0.41907 -0.118104,0.4456 -0.232891,0.89194 -0.347329,1.3385 -0.224467,0.84518 -0.410329,1.69962 -0.566351,2.55988 -0.06961,0.41984 -0.138552,0.84062 -0.170823,1.26525 -0.0019,0.0375 -0.0037,0.0749 -0.0055,0.11237 -0.09592,2.11986 2.902014,2.25551 2.997933,0.13566 v 0 c 5.29e-4,-0.0131 7.94e-4,-0.0262 0.0013,-0.0393 0.015,-0.31594 0.08984,-0.62743 0.130238,-0.94019 0.14214,-0.78954 0.314349,-1.57317 0.520259,-2.34866 0.112688,-0.43973 0.225835,-0.87919 0.342003,-1.31801 0.03529,-0.13333 0.212299,-0.79686 0.236635,-0.9268 0.041,-0.2189 0.06366,-0.44084 0.09549,-0.66125 -0.19241,-0.43129 -0.173034,-1.04962 -0.57723,-1.29387 -1.313138,-0.79352 -1.920341,-0.0917 -2.599177,0.66126 -0.603475,0.64969 -1.219867,1.28822 -1.873271,1.88823 -0.470387,0.42078 -0.939446,0.849 -1.45869,1.20964 0.642392,0.70966 1.434623,1.3082 1.92718,2.12897 0.076,0.12665 -0.635678,0.59205 -0.313757,0.37462 0.03812,-0.0257 0.07621,-0.0515 0.114158,-0.0776 0.04927,-0.0337 0.09833,-0.0678 0.147492,-0.10171 0.397057,-0.27913 0.789058,-0.56577 1.174593,-0.86059 0.264729,-0.20819 0.533218,-0.41132 0.810247,-0.60301 0.198588,-0.14206 0.397034,-0.28443 0.597728,-0.42348 0.253341,-0.17373 0.4923,-0.36658 0.703861,-0.59026 0.256582,-0.27586 0.493397,-0.56872 0.677582,-0.89894 0.184134,-0.31002 0.351832,-0.62856 0.511439,-0.95188 0.91236,-1.91588 -1.797103,-3.20615 -2.709463,-1.29027 z" />
      <path
         style="fill:#000000;stroke-width:0.264583"
         id="path26"
         d="m 54.304316,135.32364 c 0.152151,0.59984 0.242358,1.21379 0.346842,1.82324 0.171474,0.85515 0.273841,1.74416 0.600654,2.56008 0.09487,0.23685 0.21471,0.46291 0.322062,0.69436 0.318452,0.56461 0.678828,1.10257 1.012894,1.65772 1.096211,1.81695 3.66577,0.26667 2.569559,-1.55028 v 0 c -0.288364,-0.47689 -0.587158,-0.94623 -0.882968,-1.41846 -0.05675,-0.10645 -0.122803,-0.20843 -0.170249,-0.31934 -0.287498,-0.67208 -0.339897,-1.42476 -0.494109,-2.13118 -0.11984,-0.699 -0.225634,-1.40254 -0.405021,-2.08941 -0.546788,-2.05037 -3.446452,-1.2771 -2.899664,0.77327 z" />
      <path
         style="fill:#000000;stroke-width:0.264583"
         id="path28"
         d="m 136.72753,111.50529 c 0.30734,-0.42841 0.55382,-0.89302 0.76699,-1.37396 0.22154,-0.49497 0.32806,-1.02359 0.39143,-1.55877 0.0498,-0.581 0.0459,-1.16508 0.0477,-1.74775 0.0181,-0.58456 -0.0233,-1.16583 -0.10069,-1.74471 -0.0747,-0.44559 -0.1406,-0.89153 -0.17962,-1.34171 -0.0304,-0.41439 -0.0414,-0.82983 -0.0459,-1.2452 -2.6e-4,-0.0594 -7.9e-4,-0.11885 -0.001,-0.17828 -8e-4,-0.20581 -0.006,-0.41289 -1e-4,-0.61863 5.3e-4,-0.0185 0.001,0.037 0.002,0.0555 -0.0583,0.19 -0.11661,0.38001 -0.17492,0.57001 1.11373,-1.80626 -1.44071,-3.38132 -2.55445,-1.57505 v 0 c -0.0854,0.23398 -0.17085,0.46796 -0.25628,0.70195 -0.0254,0.35883 -0.0181,0.71811 -0.0159,1.07777 0.006,0.49252 0.0194,0.98514 0.0574,1.47636 0.0446,0.49633 0.11024,0.98945 0.19516,1.48053 0.0611,0.44216 0.0899,0.88548 0.0735,1.33234 -0.001,0.47378 0.001,0.94837 -0.0289,1.42136 -0.0237,0.23657 -0.0597,0.47063 -0.15788,0.6897 -0.1288,0.29988 -0.28246,0.58702 -0.47342,0.85265 -1.22037,1.736 1.23471,3.46186 2.45508,1.72586 z" />
      <path
         style="fill:#000000;stroke-width:0.264583"
         id="path29"
         d="m 138.03255,109.15042 c 0.0417,-0.0146 0.0831,-0.0299 0.12499,-0.0439 0.15043,-0.0502 0.30503,-0.10273 0.46117,-0.13238 0.0164,-0.003 0.065,-0.009 0.0499,-0.002 -0.028,0.0127 -0.0601,0.0134 -0.0902,0.0201 -0.4114,0.01 -0.63646,-0.15701 -0.91594,-0.43728 -0.0473,-0.0474 -0.0791,-0.11017 -0.12708,-0.15819 -0.006,-0.0172 -5.3e-4,-0.0512 -0.0189,-0.0517 -0.0206,-5.3e-4 -0.025,0.0329 -0.036,0.0503 -0.0937,0.14916 -0.18632,0.27185 -0.30977,0.39815 -0.18415,0.19731 -0.42416,0.30624 -0.66704,0.41179 -0.29978,0.11901 -0.6083,0.21503 -0.91323,0.32007 -0.12551,0.0436 -0.0673,0.0233 -0.17474,0.0609 -2.00295,0.70084 -1.01181,3.53344 0.99114,2.8326 v 0 c 0.0986,-0.0345 0.0449,-0.0158 0.16107,-0.0561 0.38873,-0.13394 0.78258,-0.25541 1.16073,-0.4178 0.61466,-0.27888 1.19573,-0.62082 1.65561,-1.12501 0.58728,-0.65738 1.04054,-1.39312 1.14909,-2.2872 -1e-4,-0.42502 0.0298,-0.59739 -0.0938,-1.01466 -0.2041,-0.68884 -0.61153,-1.17484 -1.29521,-1.42916 -0.17078,-0.0635 -0.35857,-0.0651 -0.53786,-0.0976 -0.13677,0.006 -0.27411,0.003 -0.4103,0.0171 -0.4329,0.0438 -0.84631,0.21005 -1.25528,0.3463 -1.97663,0.77198 -0.88489,3.56735 1.09174,2.79538 z" />
      <path
         style="fill:#000000;stroke-width:0.264583"
         id="path30"
         d="m 86.356715,147.6748 c 0.0021,0.41684 -0.006,0.83362 -0.01347,1.25037 -0.003,0.48414 -0.01662,0.96774 -0.04347,1.45111 -0.02824,0.41307 -0.06062,0.82564 -0.07909,1.2393 -0.01521,0.36997 -0.01757,0.74026 -0.01876,1.11048 -5.3e-4,0.376 -1.41e-4,0.752 6.3e-5,1.128 1.88e-4,0.34029 2.46e-4,0.68057 2.65e-4,1.02085 5.29e-4,0.36748 0.01699,0.7346 0.03212,1.10168 0.0079,0.24713 0.01304,0.49409 0.03163,0.74071 0.02286,0.32743 0.114269,0.64277 0.224669,0.94993 0.153418,0.41648 0.427072,0.75504 0.752766,1.04861 0.06386,0.0465 0.570452,0.45043 0.195117,0.14217 -0.29278,-0.33696 -0.0085,0.03 0.05507,0.10489 0.09175,0.10794 0.155586,0.16296 0.259286,0.26138 0.438571,0.36907 0.969309,0.59844 1.497071,0.80831 0.623758,0.24981 1.285711,0.34571 1.95054,0.40193 0.460047,0.0338 0.921433,0.0385 1.382488,0.0392 0.322773,-2.2e-4 0.645543,-0.002 0.968316,-0.003 0.08812,-2.5e-4 0.176253,-5.3e-4 0.26438,-7.9e-4 0.133982,-3.3286 0.844693,-2.79391 -0.816033,-3.17686 -0.600244,-0.15549 -1.201513,-0.3063 -1.80503,-0.44867 -0.499909,-0.11543 -1.00398,-0.21142 -1.503889,-0.32678 -0.397899,-0.0878 -0.793787,-0.18531 -1.185238,-0.29858 -0.403117,-0.13747 -0.810445,-0.22692 -1.232805,-0.2758 -2.11645,-0.15374 -2.333863,2.83938 -0.217413,2.99311 v 0 c -0.01905,-0.007 -0.0774,-0.0196 -0.05717,-0.0206 0.180226,-0.009 0.494128,0.16885 0.679508,0.18786 0.443333,0.1265 0.890275,0.24017 1.340689,0.33872 0.494593,0.11337 0.992531,0.21088 1.487413,0.32296 0.609545,0.14373 1.216388,0.29754 1.823051,0.45286 0.350398,0.08 0.702752,0.16312 1.058836,0.21438 0.08352,0.012 0.239503,0.11341 0.251365,0.0299 0.140504,-0.98948 0.112966,-1.99563 0.169449,-2.99344 -0.08866,2e-4 -0.177331,5.3e-4 -0.265996,7.9e-4 -0.318325,0.001 -0.636651,0.002 -0.954979,0.002 -0.380786,-5.3e-4 -0.76186,-0.003 -1.141926,-0.0292 -0.372663,-0.0291 -0.746183,-0.0648 -1.097203,-0.20373 -0.16142,-0.0623 -0.319712,-0.12655 -0.474589,-0.20401 -0.0397,-0.0199 -0.144356,-0.093 -0.12129,-0.055 0.0082,0.0135 0.02138,0.0232 0.03208,0.0348 0.138179,0.23764 -0.225329,-0.35707 -0.274873,-0.32929 -0.125595,-0.10948 -0.210021,-0.18197 -0.30712,-0.24372 0.04841,0.0552 0.08888,0.11833 0.105368,0.1907 -0.02289,-0.0577 -0.04569,-0.10596 -0.0502,-0.15187 -0.01812,-0.20902 -0.01392,-0.41907 -0.0249,-0.62849 -0.01347,-0.32596 -0.02872,-0.65192 -0.02957,-0.97822 -2.9e-5,-0.34074 -8.7e-5,-0.68148 -2.64e-4,-1.02221 -2.01e-4,-0.37226 -5.29e-4,-0.74451 -7.7e-5,-1.11676 0.0011,-0.32929 0.0027,-0.65866 0.01588,-0.98773 0.01752,-0.40254 0.05163,-0.80382 0.07743,-1.20587 0.02871,-0.52076 0.04423,-1.04179 0.04758,-1.56336 0.0078,-0.4346 0.01606,-0.86923 0.01394,-1.30392 0,-2.12203 -3.001,-2.12203 -3.001,0 z" />
      <path
         style="fill:#000000;stroke-width:0.264583"
         id="path31"
         d="m 106.21231,144.63928 c -0.1,0.88908 0.0196,1.78639 0.11693,2.67066 0.11237,1.07492 0.31061,2.13781 0.49492,3.20195 0.14386,0.84944 0.29202,1.69816 0.45006,2.54507 0.10981,0.58247 0.19093,1.16973 0.28471,1.75484 0.0562,0.36347 0.10514,0.72805 0.15387,1.09259 0.0452,0.29568 0.0688,0.594 0.0978,0.89155 0.0234,0.33134 0.0619,0.66058 0.1234,0.98701 0.0577,0.20816 0.14149,0.65886 0.28021,0.8157 0.20763,0.23475 0.44598,0.44042 0.66897,0.66063 0.83675,0.42529 1.76755,0.47855 2.68833,0.4637 0.80336,-0.0423 1.60125,-0.14893 2.4009,-0.23243 0.6397,-0.0612 1.28187,-0.0906 1.92406,-0.10872 0.24357,-0.006 0.48719,-0.01 0.73083,-0.0107 -0.0232,-1.00028 0.008,-2.00327 -0.0696,-3.00084 -0.004,-0.054 -0.10829,1.4e-4 -0.16239,0.002 -0.45257,0.0156 -0.90469,0.044 -1.35731,0.0602 -0.70503,0.0444 -1.40794,-0.0242 -2.10852,-0.0945 -0.57708,-0.0624 -1.151,-0.15002 -1.72653,-0.22492 -0.55161,-0.0753 -1.10554,-0.12941 -1.66089,-0.16725 -0.2734,-0.017 -0.54709,-0.0295 -0.821,-0.0339 -0.0172,-1.5e-4 -0.069,-0.002 -0.0517,-5.3e-4 0.92639,0.0702 1.2363,0.56142 1.41098,1.77884 0.0578,0.40279 -0.30399,0.6745 -0.57226,0.89002 0.48789,-0.20067 0.98684,-0.37228 1.48326,-0.55023 0.68553,-0.25788 1.37487,-0.50501 2.06494,-0.75032 0.43448,-0.1693 0.88344,-0.2946 1.33765,-0.3976 0.18501,-0.0385 0.37082,-0.0755 0.55866,-0.0976 0.0229,-0.003 0.0908,-0.0141 0.0689,-0.007 -0.0243,0.008 -0.0509,0.006 -0.0764,0.009 -0.78173,-0.0151 -1.42674,-0.70509 -1.29321,-1.47388 0.0384,-0.13148 -0.11452,-0.002 -0.1573,0.0185 -0.11096,0.0526 -0.0905,0.0417 -0.20639,0.075 -0.4911,0.12266 -0.99038,0.2094 -1.48687,0.3071 -0.62936,0.13342 -1.65982,0.4594 -1.47808,1.42957 0.13828,0.73814 0.93628,1.19594 1.53545,1.64867 0.10192,0.077 0.90752,-0.15323 1.02857,-0.18439 0.98882,-0.30425 1.96496,-0.68455 2.85431,-1.21903 0.16244,-0.0976 0.31723,-0.20743 0.47584,-0.31115 0.66903,-0.46061 1.17609,-1.07404 1.50807,-1.81038 0.21548,-0.80976 0.42529,-1.1947 -0.77654,-2.04506 -0.36326,-0.25703 -0.89605,-0.0403 -1.33453,0.0356 -0.27869,0.0482 -0.74985,0.58471 -0.93754,0.7902 -0.46028,0.52693 -0.74181,1.1536 -0.92585,1.82124 -0.0882,0.36437 -0.15996,0.73155 -0.19976,1.10431 0.005,0.14126 -0.0169,0.28582 0.0139,0.42377 0.15865,0.7125 0.55175,1.33461 1.30282,1.54454 0.27856,0.0779 0.58235,0.11319 0.86589,0.0561 0.31422,-0.0633 0.5811,-0.27072 0.87165,-0.40609 0.16192,-0.18351 0.34446,-0.35072 0.48577,-0.55054 0.42671,-0.60343 0.5515,-1.3864 0.57955,-2.10598 -0.10166,-0.31269 0.0219,-0.90278 -0.30498,-0.93807 -0.91781,-0.0991 -1.84895,0.25737 -2.70057,0.61362 -0.16733,0.07 -0.0579,0.35952 -0.0593,0.5409 -0.003,0.37814 0.076,0.76598 0.22472,1.11344 0.0779,0.18195 0.19415,0.34495 0.29123,0.51742 0.16513,0.16654 0.30057,0.36905 0.49539,0.49962 0.97184,0.65136 1.89803,0.46337 2.6521,-0.41145 0.34146,-0.39613 0.38496,-0.85708 0.48853,-1.33526 0.0263,-0.45479 0.0531,-0.93415 -0.0615,-1.38204 -0.0419,-0.16368 -0.0445,-0.35806 -0.16063,-0.48074 -0.33086,-0.34935 -0.65655,-0.86212 -1.13694,-0.88938 -0.59346,-0.0337 -1.08386,0.48845 -1.62579,0.73266 -0.0846,0.20399 -0.19156,0.40009 -0.2539,0.61195 -0.22488,0.76429 -0.0845,1.74429 0.0461,2.51767 0.28862,1.26077 0.67213,2.30749 2.57881,1.8558 0.43232,-0.10242 0.51708,-0.72262 0.77562,-1.08394 0.1866,-0.91534 0.13821,-1.86494 -0.11379,-2.76405 -0.0451,-0.16091 -0.10517,-0.31725 -0.15775,-0.47588 -0.301,-0.75821 -0.77979,-1.43634 -1.52757,-1.80689 -0.14446,-0.0716 -0.30151,-0.11432 -0.45226,-0.17147 -0.19784,-0.0278 -0.39381,-0.0785 -0.59353,-0.0833 -0.81947,-0.0198 -1.40471,0.34356 -2.04164,0.79875 -1.70493,1.2634 0.0818,3.67455 1.78673,2.41114 v 0 c 0.29412,-0.23964 0.20143,-0.15701 -0.0722,-0.27033 -0.25694,-0.22538 -0.006,-0.13757 0.0639,0.10162 0.17416,0.46309 0.22929,0.88828 0.23908,1.38045 0.21579,-0.2219 0.33849,-0.64549 0.64736,-0.66571 0.64795,-0.0424 1.26816,0.29045 1.88271,0.50014 0.0584,0.0199 0.0527,0.11161 0.0767,0.16843 0.01,0.0226 -0.0241,-0.0429 -0.0332,-0.0657 -0.0541,-0.13439 -0.0633,-0.19404 -0.10254,-0.3449 -0.0526,-0.28643 -0.095,-0.57079 -0.1096,-0.86213 -0.004,-0.0728 7.9e-4,-0.14596 -0.004,-0.21874 -0.001,-0.0212 0.002,-0.077 -0.0136,-0.0621 -0.0582,0.0572 -0.0884,0.13714 -0.13255,0.20571 -0.4956,0.17543 -0.96574,0.59622 -1.4868,0.5263 -0.8356,-0.11211 -0.942,-0.55577 -1.03771,-1.06419 -0.007,-0.0396 0.0188,0.0783 0.0255,0.118 0.0126,0.0744 0.0252,0.19669 0.0338,0.27484 0.066,0.0906 -0.005,0.019 0.15056,-0.0779 0.16059,-0.1 0.31271,-0.23461 0.49819,-0.27177 0.46589,-0.0933 0.75112,-0.0216 1.07669,0.26561 0.0568,0.0501 0.0809,0.12821 0.12134,0.19231 10e-4,0.0438 0.01,0.0813 -0.0155,0.12067 -0.005,0.008 -0.0197,0.005 -0.0243,0.0125 -0.0174,0.0296 -0.005,0.0894 -0.0389,0.0952 -2.90829,0.50218 -2.39189,1.18425 -2.89452,-0.50894 0.0101,0.0956 -0.005,0.19183 -0.0176,0.28674 -0.006,0.043 -0.0393,0.14786 1.6e-4,0.12994 0.0643,-0.0292 0.11719,-0.079 0.17579,-0.1185 0.17545,-0.0508 0.34393,-0.14313 0.52636,-0.15242 0.69354,-0.0353 1.26169,0.55034 1.1839,1.2348 0.007,-0.20877 0.0808,-0.41077 0.11248,-0.61608 0.0534,-0.22389 0.1259,-0.43357 0.28026,-0.61133 0.0297,-0.04 0.13955,-0.13187 0.0916,-0.11822 -0.46961,0.13375 -0.40322,0.79497 -1.33058,0.0375 -1.10804,-0.90504 -0.95588,-1.14352 -0.72391,-1.86646 -0.0367,0.21783 -0.26408,0.36448 -0.41205,0.49681 -0.74811,0.51003 -1.58408,0.86794 -2.4489,1.13182 -0.0745,0.0218 -0.16005,0.0206 -0.22338,0.0654 -0.0289,0.0204 0.0813,-0.008 0.10434,0.0188 0.45759,0.53219 1.23825,0.94244 1.32138,1.63937 0.0622,0.5218 -0.63663,0.83696 -0.97839,1.23614 -0.0217,0.0254 -0.13053,0.0284 -0.0979,0.0211 0.0489,-0.011 0.0979,-0.0214 0.14685,-0.0321 0.66259,-0.13039 1.333,-0.23716 1.97636,-0.44745 0.88871,-0.36011 1.5315,-0.77828 2.01792,-1.63643 0.14121,-0.37623 0.25606,-0.56765 0.25344,-0.97073 -0.006,-0.98932 -0.38595,-1.38113 -1.27408,-1.76617 -0.11892,-0.0516 -0.25695,-0.0342 -0.38542,-0.0513 -0.42123,0.0122 -0.83595,0.0753 -1.24669,0.17111 -0.56657,0.13126 -1.12798,0.28545 -1.67131,0.49488 -0.6925,0.24626 -1.38444,0.49388 -2.07231,0.75294 -0.63128,0.22631 -1.27012,0.43818 -1.87756,0.72446 -0.39059,0.23706 -1.00079,0.54008 -0.9538,1.12579 0.094,1.17166 0.54756,1.85302 1.52793,1.8572 0.22168,0.003 0.44316,0.0142 0.66444,0.0274 0.49364,0.0331 0.98587,0.082 1.47613,0.149 0.60489,0.0787 1.20804,0.17112 1.81477,0.23508 0.8358,0.0836 1.67472,0.15664 2.51555,0.10744 0.36357,-0.0131 0.72681,-0.0281 1.09008,-0.0477 0.0659,-0.004 0.13176,-0.008 0.19771,-0.0108 0.0437,-0.002 0.12839,0.0419 0.13121,-0.002 0.0646,-0.99851 0.0421,-2.00077 0.0632,-3.00116 -0.27239,1.4e-4 -0.54476,0.006 -0.81707,0.012 -0.71795,0.0206 -1.43585,0.0541 -2.15092,0.12378 -0.71806,0.0752 -1.43459,0.16849 -2.15518,0.2169 -0.27534,0.009 -0.53615,0.0115 -0.80966,-0.0241 -0.0295,-0.004 -0.29443,-0.0453 -0.29459,-0.0452 -0.0197,0.0179 0.0398,0.0353 0.0598,0.0529 0.13783,0.1676 0.28147,0.33059 0.4135,0.50279 0.0738,0.0963 0.0155,0.10267 0.007,0.006 -0.0475,-0.23407 -0.0623,-0.47227 -0.0833,-0.70984 -0.0325,-0.33318 -0.0599,-0.6671 -0.11007,-0.99825 -0.0523,-0.39057 -0.10469,-0.78119 -0.16535,-1.17056 -0.0982,-0.61005 -0.18225,-1.22249 -0.2977,-1.82968 -0.15573,-0.83409 -0.30137,-1.67001 -0.44313,-2.50658 -0.1738,-1.00344 -0.36252,-2.00546 -0.46901,-3.019 -0.0673,-0.60821 -0.13849,-1.21768 -0.14267,-1.83031 0.36143,-2.09102 -2.59572,-2.60216 -2.95715,-0.51114 z" />
    </g>
  </g>
</svg>
