<?xml version="1.0" encoding="UTF-8" standalone="no"?>
<!-- Created with Inkscape (http://www.inkscape.org/) -->

<svg
   width="166.6875mm"
   height="166.6875mm"
   viewBox="0 0 166.6875 166.6875"
   version="1.1"
   id="svg1"
   xmlns:inkscape="http://www.inkscape.org/namespaces/inkscape"
   xmlns:sodipodi="http://sodipodi.sourceforge.net/DTD/sodipodi-0.dtd"
   xmlns="http://www.w3.org/2000/svg"
   xmlns:svg="http://www.w3.org/2000/svg">
  <sodipodi:namedview
     id="namedview1"
     pagecolor="#ffffff"
     bordercolor="#000000"
     borderopacity="0.25"
     inkscape:showpageshadow="2"
     inkscape:pageopacity="0.0"
     inkscape:pagecheckerboard="0"
     inkscape:deskcolor="#d1d1d1"
     inkscape:document-units="mm" />
  <defs
     id="defs1">
    <radialGradient
       id="paint0_radial_87_7153"
       cx="0"
       cy="0"
       r="1"
       gradientUnits="userSpaceOnUse"
       gradientTransform="matrix(86.320408,-125.01555,125.01555,86.320408,78.873882,169.97726)">
      <stop
         stop-color="#B13589"
         id="stop5" />
      <stop
         offset="0.79309"
         stop-color="#C62F94"
         id="stop6" />
      <stop
         offset="1"
         stop-color="#8A3AC8"
         id="stop7" />
    </radialGradient>
    <radialGradient
       id="paint1_radial_87_7153"
       cx="0"
       cy="0"
       r="1"
       gradientUnits="userSpaceOnUse"
       gradientTransform="matrix(56.554576,-122.0388,122.0388,56.554576,72.92076,217.60226)">
      <stop
         stop-color="#E0E8B7"
         id="stop8" />
      <stop
         offset="0.444662"
         stop-color="#FB8A2E"
         id="stop9" />
      <stop
         offset="0.71474"
         stop-color="#E2425C"
         id="stop10" />
      <stop
         offset="1"
         stop-color="#E2425C"
         stop-opacity="0"
         id="stop11" />
    </radialGradient>
    <radialGradient
       id="paint2_radial_87_7153"
       cx="0"
       cy="0"
       r="1"
       gradientUnits="userSpaceOnUse"
       gradientTransform="matrix(229.19548,-32.742201,7.0032169,49.022534,10.412959,50.914756)">
      <stop
         offset="0.156701"
         stop-color="#406ADC"
         id="stop12" />
      <stop
         offset="0.467799"
         stop-color="#6A45BE"
         id="stop13" />
      <stop
         offset="1"
         stop-color="#6A45BE"
         stop-opacity="0"
         id="stop14" />
    </radialGradient>
  </defs>
  <g
     inkscape:label="Capa 1"
     inkscape:groupmode="layer"
     id="layer1"
     transform="translate(-19.342635,-44.961634)">
    <rect
       x="19.342634"
       y="44.961632"
       width="166.6875"
       height="166.6875"
       rx="35.71875"
       fill="url(#paint0_radial_87_7153)"
       id="rect1"
       style="fill:url(#paint0_radial_87_7153);stroke-width:5.95312" />
    <rect
       x="19.342634"
       y="44.961632"
       width="166.6875"
       height="166.6875"
       rx="35.71875"
       fill="url(#paint1_radial_87_7153)"
       id="rect2"
       style="fill:url(#paint1_radial_87_7153);stroke-width:5.95312" />
    <rect
       x="19.342634"
       y="44.961632"
       width="166.6875"
       height="166.6875"
       rx="35.71875"
       fill="url(#paint2_radial_87_7153)"
       id="rect3"
       style="fill:url(#paint2_radial_87_7153);stroke-width:5.95312" />
    <path
       d="m 148.98847,91.925168 c 0,5.47953 -4.44236,9.921882 -9.92188,9.921882 -5.47952,0 -9.92187,-4.442352 -9.92187,-9.921882 0,-5.47971 4.44235,-9.92187 9.92187,-9.92187 5.47952,0 9.92188,4.44216 9.92188,9.92187 z"
       fill="#ffffff"
       id="path3"
       style="stroke-width:6.61458" />
    <path
       fill-rule="evenodd"
       clip-rule="evenodd"
       d="m 102.68639,161.3783 c 18.26551,0 33.07291,-14.80741 33.07291,-33.07292 0,-18.26551 -14.8074,-33.072912 -33.07291,-33.072912 -18.265511,0 -33.072921,14.807402 -33.072921,33.072912 0,18.26551 14.80741,33.07292 33.072921,33.07292 z m 0,-13.22917 c 10.9597,0 19.84375,-8.88404 19.84375,-19.84375 0,-10.9597 -8.88405,-19.84375 -19.84375,-19.84375 -10.959711,0 -19.843751,8.88405 -19.843751,19.84375 0,10.95971 8.88404,19.84375 19.843751,19.84375 z"
       fill="#ffffff"
       id="path4"
       style="stroke-width:6.61458" />
    <path
       fill-rule="evenodd"
       clip-rule="evenodd"
       d="m 36.540549,125.65955 c 0,-22.22698 0,-33.340812 4.32568,-41.830232 3.80497,-7.46773 9.87636,-13.53912 17.34409,-17.3441 8.48943,-4.32567 19.60325,-4.32567 41.830231,-4.32567 h 5.29167 c 22.22698,0 33.34081,0 41.82996,4.32567 7.46787,3.80498 13.53939,9.87637 17.3441,17.3441 4.32594,8.48942 4.32594,19.603252 4.32594,41.830232 v 5.29167 c 0,22.22698 0,33.3408 -4.32594,41.82996 -3.80471,7.46786 -9.87623,13.53939 -17.3441,17.3441 -8.48915,4.32594 -19.60298,4.32594 -41.82996,4.32594 h -5.29167 c -22.226981,0 -33.340801,0 -41.830231,-4.32594 -7.46773,-3.80471 -13.53912,-9.87624 -17.34409,-17.3441 -4.32568,-8.48916 -4.32568,-19.60298 -4.32568,-41.82996 z M 100.04055,75.388718 h 5.29167 c 11.3321,0 19.03479,0.0103 24.98923,0.49675 5.80033,0.47387 8.76631,1.33277 10.83535,2.38701 4.97814,2.53669 9.0256,6.58428 11.56229,11.56249 1.05437,2.06904 1.9136,5.03502 2.38721,10.835352 0.48617,5.95444 0.49675,13.65713 0.49675,24.98923 v 5.29167 c 0,11.3321 -0.0106,19.03478 -0.49675,24.98923 -0.47361,5.80033 -1.33284,8.76631 -2.38721,10.83535 -2.53669,4.97813 -6.58415,9.0256 -11.56229,11.56229 -2.06904,1.05437 -5.03502,1.9136 -10.83535,2.3872 -5.95444,0.48618 -13.65713,0.49676 -24.98923,0.49676 h -5.29167 c -11.332101,0 -19.034781,-0.0106 -24.989231,-0.49676 -5.80033,-0.4736 -8.76631,-1.33283 -10.83535,-2.3872 -4.9782,-2.53669 -9.0258,-6.58416 -11.56249,-11.56229 -1.05423,-2.06904 -1.91314,-5.03502 -2.38701,-10.83535 -0.48643,-5.95445 -0.49675,-13.65713 -0.49675,-24.98923 v -5.29167 c 0,-11.3321 0.0103,-19.03479 0.49675,-24.98923 0.47387,-5.800332 1.33278,-8.766312 2.38701,-10.835352 2.53669,-4.97821 6.58429,-9.0258 11.56249,-11.56249 2.06904,-1.05424 5.03502,-1.91314 10.83535,-2.38701 5.95445,-0.48643 13.65713,-0.49675 24.989231,-0.49675 z"
       fill="#ffffff"
       id="path5"
       style="stroke-width:6.61458" />
  </g>
</svg>
